#!OML:ASF G:\JayActor3\Patient Classification 1\Patient 1\Session 2\male.ASF
:FULLY-SPECIFIED
:DEGREES
2333
root 35.5187 16.662 -8.20867 1971.84 97.912 533.801
lowerback -0.186612 2.43317 -0.744125
upperback 2.52039 3.31388 -1.13388
thorax 2.71587 1.66354 -0.661752
lowerneck -12.2829 -5.77959 -4.79939
upperneck -3.587 -6.92737 11.2484
head 1.50559 -3.04898 3.81994
rclavicle -4.21672e-014 1.07344e-014
rhumerus -32.166 -3.24126 -80.1238
rradius 11.2185
rwrist 33.9563
rhand -6.23834 5.76816
rfingers 7.12502
rthumb 19.6032 -23.2635
lclavicle -4.21672e-014 1.07344e-014
lhumerus -34.5421 2.63239 79.0714
lradius 24.7303
lwrist 14.6259
lhand -25.2095 16.0798
lfingers 7.12502
lthumb 1.30925 46.0555
rfemur -16.6833 0.383259 21.9408
rtibia 73.771
rfoot -9.66052 -10.7351
rtoes 8.78456
lfemur -14.1811 4.79995 -23.7219
ltibia 29.6188
lfoot -9.13757 6.3801
ltoes -8.17796
2334
root 35.6764 16.674 -8.21006 1972.2 97.6903 534.237
lowerback -0.129193 2.17913 -0.869368
upperback 2.53807 2.97373 -1.04549
thorax 2.68788 1.48972 -0.512225
lowerneck -12.1492 -5.55609 -4.70493
upperneck -3.59714 -6.66056 10.7653
head 1.58069 -2.9428 4.05926
rclavicle 2.8302e-014 -9.93923e-015
rhumerus -32.7545 -1.21539 -80.81
rradius 11.9734
rwrist 30.3734
rhand -6.21686 5.53948
rfingers 7.12502
rthumb 19.6239 -23.4901
lclavicle 2.8302e-014 -9.93923e-015
lhumerus -34.4415 2.20003 80.7151
lradius 26.4442
lwrist 15.6867
lhand -25.5517 16.0585
lfingers 7.12502
lthumb 0.978732 46.036
rfemur -18.1411 0.446683 21.8666
rtibia 73.738
rfoot -11.131 -10.7534
rtoes 8.10324
lfemur -13.2893 4.56052 -23.8667
ltibia 29.2246
lfoot -9.48956 6.41703
ltoes -8.14047
2335
root 35.8342 16.6811 -8.21025 1972.81 97.4626 534.922
lowerback -0.0849801 1.93113 -1.04011
upperback 2.56097 2.64281 -0.958884
thorax 2.67337 1.31952 -0.337614
lowerneck -12.1304 -5.33104 -4.52329
upperneck -3.466 -6.39558 10.5254
head 1.5788 -2.81921 3.95611
rclavicle 2.09469e-014 -1.98785e-015
rhumerus -33.4141 0.844367 -81.5477
rradius 12.8951
rwrist 26.4305
rhand -6.15788 5.27138
rfingers 7.12502
rthumb 19.6806 -23.7524
lclavicle 2.09469e-014 -1.98785e-015
lhumerus -34.3133 1.72301 82.3002
lradius 28.241
lwrist 16.7548
lhand -25.8061 16.0948
lfingers 7.12502
lthumb 0.733061 46.0733
rfemur -19.5608 0.528329 21.7625
rtibia 73.545
rfoot -12.3746 -10.7791
rtoes 7.82627
lfemur -12.4267 4.36216 -24.0394
ltibia 28.8794
lfoot -9.86769 6.41127
ltoes -8.13817
2336
root 35.992 16.6831 -8.20952 1973.62 97.2514 535.797
lowerback -0.0573338 1.6979 -1.23646
upperback 2.59126 2.33253 -0.872732
thorax 2.67777 1.159 -0.14745
lowerneck -12.1283 -5.11343 -4.34929
upperneck -3.33004 -6.13922 10.2837
head 1.5837 -2.69919 3.85316
rclavicle 2.74323e-014 -1.03368e-014
rhumerus -34.1342 2.78491 -82.2513
rradius 13.9684
rwrist 22.3794
rhand -6.05092 4.9744
rfingers 7.12502
rthumb 19.7834 -24.0388
lclavicle 2.74323e-014 -1.03368e-014
lhumerus -34.1469 1.19265 83.8268
lradius 30.097
lwrist 17.7992
lhand -25.9889 16.1288
lfingers 7.12502
lthumb 0.55644 46.1078
rfemur -20.945 0.649864 21.6423
rtibia 73.1934
rfoot -13.3808 -10.8359
rtoes 7.86963
lfemur -11.6019 4.21966 -24.2232
ltibia 28.5981
lfoot -10.2759 6.36389
ltoes -8.20288
2337
root 36.1498 16.6803 -8.20819 1974.56 97.0731 536.798
lowerback -0.0454407 1.48622 -1.44228
upperback 2.62269 2.05152 -0.787311
thorax 2.69478 1.01275 0.0487113
lowerneck -12.1324 -4.90583 -4.1788
upperneck -3.19437 -5.89533 10.0378
head 1.59172 -2.58519 3.74865
rclavicle -1.03865e-014 7.95139e-015
rhumerus -34.9069 4.50209 -82.8604
rradius 15.1716
rwrist 18.4266
rhand -5.9224 4.66759
rfingers 7.12502
rthumb 19.9069 -24.3328
lclavicle -1.03865e-014 7.95139e-015
lhumerus -33.9511 0.590123 85.2933
lradius 32.0012
lwrist 18.7795
lhand -26.0869 16.1319
lfingers 7.12502
lthumb 0.461813 46.1111
rfemur -22.2973 0.824826 21.5135
rtibia 72.6816
rfoot -14.267 -10.8702
rtoes 7.94165
lfemur -10.826 4.14905 -24.4062
ltibia 28.3902
lfoot -10.7409 6.27017
ltoes -8.25609
2338
root 36.3075 16.6727 -8.20661 1975.61 96.9435 537.893
lowerback -0.0498231 1.30134 -1.64352
upperback 2.65422 1.80672 -0.706337
thorax 2.72372 0.884551 0.239127
lowerneck -12.1389 -4.71057 -4.01637
upperneck -3.06769 -5.66578 9.80231
head 1.60018 -2.47791 3.64875
rclavicle 7.33018e-015 -3.97569e-016
rhumerus -35.709 5.95593 -83.3528
rradius 16.4749
rwrist 14.7071
rhand -5.78879 4.36882
rfingers 7.12502
rthumb 20.0354 -24.6182
lclavicle 7.33018e-015 -3.97569e-016
lhumerus -33.7248 -0.10982 86.7004
lradius 33.9389
lwrist 19.6794
lhand -26.1185 16.1269
lfingers 7.12502
lthumb 0.431258 46.1062
rfemur -23.6196 1.06024 21.3773
rtibia 72.0107
rfoot -15.055 -10.8803
rtoes 7.95245
lfemur -10.0997 4.15702 -24.5835
ltibia 28.2535
lfoot -11.2555 6.14008
ltoes -8.28642
2339
root 36.465 16.6608 -8.20509 1976.78 96.8758 539.089
lowerback -0.065981 1.14717 -1.83817
upperback 2.68312 1.60324 -0.632152
thorax 2.75862 0.77707 0.420057
lowerneck -12.1464 -4.52728 -3.86624
upperneck -2.95091 -5.44957 9.58418
head 1.60878 -2.37671 3.55671
rclavicle 6.5102e-015 6.75868e-015
rhumerus -36.5285 7.15497 -83.728
rradius 17.8567
rwrist 11.2802
rhand -5.67575 4.08186
rfingers 7.12502
rthumb 20.144 -24.8938
lclavicle 6.5102e-015 6.75868e-015
lhumerus -33.4754 -0.933524 88.0534
lradius 35.8982
lwrist 20.4887
lhand -26.1179 16.0915
lfingers 7.12502
lthumb 0.431887 46.0708
rfemur -24.9188 1.35586 21.2253
rtibia 71.1793
rfoot -15.754 -10.8559
rtoes 7.73672
lfemur -9.41473 4.23303 -24.7603
ltibia 28.1717
lfoot -11.8114 5.99608
ltoes -8.35057
2340
root 36.6222 16.6452 -8.20382 1978.09 96.8696 540.419
lowerback -0.0857661 1.02377 -2.02851
upperback 2.70812 1.44117 -0.569339
thorax 2.7929 0.690429 0.58782
lowerneck -12.138 -4.35682 -3.73854
upperneck -2.85872 -5.24592 9.40089
head 1.61049 -2.2813 3.48079
rclavicle 1.08835e-014 4.77083e-015
rhumerus -37.3509 8.11053 -83.9908
rradius 19.2852
rwrist 8.20498
rhand -5.60976 3.82137
rfingers 7.12502
rthumb 20.2075 -25.1476
lclavicle 1.08835e-014 4.77083e-015
lhumerus -33.2102 -1.89743 89.3508
lradius 37.8695
lwrist 21.2134
lhand -26.0907 16.0401
lfingers 7.12502
lthumb 0.458187 46.0193
rfemur -26.1815 1.69803 21.0452
rtibia 70.1862
rfoot -16.3878 -10.7713
rtoes 7.42033
lfemur -8.74895 4.35687 -24.9473
ltibia 28.1135
lfoot -12.4251 5.85027
ltoes -8.24826
2341
root 36.7791 16.6268 -8.20267 1979.57 96.9181 541.915
lowerback -0.102996 0.927957 -2.22276
upperback 2.73191 1.31647 -0.521553
thorax 2.82519 0.622518 0.743101
lowerneck -12.1135 -4.20018 -3.62233
upperneck -2.79409 -5.0572 9.24246
head 1.60338 -2.1932 3.41509
rclavicle 6.18717e-015 2.78299e-015
rhumerus -38.1583 8.84023 -84.1511
rradius 20.7285
rwrist 5.5109
rhand -5.60935 3.59431
rfingers 7.12502
rthumb 20.2078 -25.3746
lclavicle 6.18717e-015 2.78299e-015
lhumerus -32.9329 -3.00742 90.5848
lradius 39.8467
lwrist 21.836
lhand -26.0319 16.0031
lfingers 7.12502
lthumb 0.514916 45.9822
rfemur -27.3915 2.06756 20.8267
rtibia 69.0256
rfoot -16.8501 -10.6501
rtoes 7.25761
lfemur -8.06901 4.51608 -25.1536
ltibia 28.0346
lfoot -13.0639 5.70566
ltoes -8.03057
2342
root 36.9353 16.6073 -8.20128 1981.22 97.0046 543.585
lowerback -0.109206 0.852303 -2.43281
upperback 2.75456 1.2192 -0.488436
thorax 2.85036 0.568162 0.892561
lowerneck -12.0746 -4.0562 -3.51831
upperneck -2.75838 -4.88164 9.10769
head 1.58694 -2.11152 3.3593
rclavicle 1.23743e-014 -3.97569e-015
rhumerus -38.9331 9.37969 -84.2241
rradius 22.155
rwrist 3.2098
rhand -5.69855 3.4123
rfingers 7.12502
rthumb 20.1221 -25.5656
lclavicle 1.23743e-014 -3.97569e-015
lhumerus -32.6445 -4.28602 91.758
lradius 41.8226
lwrist 22.398
lhand -25.9957 15.9555
lfingers 7.12502
lthumb 0.549921 45.9345
rfemur -28.5338 2.44073 20.567
rtibia 67.6909
rfoot -17.1365 -10.4939
rtoes 7.23589
lfemur -7.35096 4.70084 -25.3823
ltibia 27.8895
lfoot -13.7006 5.55204
ltoes -7.70361
